<svg xmlns="http://www.w3.org/2000/svg" width="512" height="512" viewBox="0 0 512 512"><path fill="#333" d="M1.263 128.63C1.263 198.95 58.23 256 128.63 256c0-70.318-57.05-127.37-127.367-127.37zM128.63 1.264c0 70.318 56.97 127.37 127.37 127.37 0-70.32-57.05-127.37-127.37-127.37zM1.264 383.37c70.343 0 127.37-57.02 127.37-127.37-70.344 0-127.37 57.017-127.37 127.37zM128.63 510.736c70.344 0 127.37-57.017 127.37-127.368-70.343 0-127.37 57.016-127.37 127.367zM383.37 1.263C313.016 1.263 256 58.27 256 128.63c70.352 0 127.37-57.007 127.37-127.367zm0 509.474c0-70.317-57.053-127.368-127.37-127.368 0 70.316 56.968 127.367 127.37 127.367zm0-254.737c0 70.317 56.966 127.37 127.367 127.37 0-70.32-57.05-127.37-127.368-127.37zM256 128.63C256 198.95 312.968 256 383.37 256c0-70.318-57.053-127.37-127.37-127.37zm254.737 0c-70.352 0-127.368 57.01-127.368 127.37 70.35 0 127.367-57.01 127.367-127.37zm-254.737 0c-70.343 0-127.37 57.01-127.37 127.37C198.975 256 256 198.99 256 128.63zm0 254.74c70.317 0 127.37-57.053 127.37-127.37C313.016 256 256 312.968 256 383.37zM128.63 256c0 70.317 57.01 127.37 127.37 127.37C256 313.016 198.99 256 128.63 256z"/></svg>